<svg width="15" height="15" viewBox="0 0 15 15" fill="none" xmlns="http://www.w3.org/2000/svg">
<g clip-path="url(#clip0)">
<path d="M13.9772 6.13636H8.86359V1.02273C8.86359 0.45818 8.40541 0 7.84087 0H7.15909C6.59454 0 6.13636 0.45818 6.13636 1.02273V6.13636H1.02273C0.45818 6.13636 0 6.59454 0 7.15909V7.84087C0 8.40541 0.45818 8.86359 1.02273 8.86359H6.13636V13.9772C6.13636 14.5418 6.59454 15 7.15909 15H7.84087C8.40541 15 8.86359 14.5418 8.86359 13.9772V8.86359H13.9772C14.5418 8.86359 15 8.40541 15 7.84087V7.15909C15 6.59454 14.5418 6.13636 13.9772 6.13636V6.13636Z" fill="white"/>
</g>
<defs>
<clipPath id="clip0">
<rect width="15" height="15" fill="white"/>
</clipPath>
</defs>
</svg>
