<svg width="512" height="512" viewBox="0 0 512 512" fill="none" xmlns="http://www.w3.org/2000/svg">
<g clip-path="url(#clip0)">
<path d="M253.681 71.3198C160.959 71.3198 85.5269 146.752 85.5269 239.474V418.065H120.317V239.474C120.317 165.939 180.139 106.11 253.681 106.11C327.223 106.11 387.045 165.938 387.045 239.474V418.065H421.836V239.474C421.835 146.752 346.403 71.3198 253.681 71.3198Z" fill="#373636"/>
<path d="M441.549 400.67H70.4511C60.8431 400.67 53.0562 408.457 53.0562 418.065C53.0562 427.673 60.8431 435.46 70.4511 435.46H441.55C451.158 435.46 458.945 427.673 458.945 418.065C458.945 408.457 451.157 400.67 441.549 400.67Z" fill="#373636"/>
<path d="M253.681 0C224.266 0 200.336 23.93 200.336 53.345C200.336 82.76 224.266 106.69 253.681 106.69C283.096 106.69 307.026 82.76 307.026 53.345C307.026 23.93 283.096 0 253.681 0ZM253.681 71.9C243.621 71.9 235.126 63.4 235.126 53.345C235.126 43.285 243.621 34.79 253.681 34.79C263.741 34.79 272.236 43.285 272.236 53.345C272.236 63.405 263.741 71.9 253.681 71.9Z" fill="#373636"/>
<path d="M283.832 418.066V448.218C283.832 464.204 270.826 477.21 254.84 477.21C238.854 477.21 225.848 464.204 225.848 448.218V418.066H191.057V448.218C191.057 483.385 219.672 512.001 254.84 512.001C290.007 512.001 318.623 483.386 318.623 448.218V418.066H283.832Z" fill="#373636"/>
</g>
<defs>
<clipPath id="clip0">
<rect width="512" height="512" fill="white"/>
</clipPath>
</defs>
</svg>
