<svg width="512" height="512" viewBox="0 0 512 512" fill="none" xmlns="http://www.w3.org/2000/svg">
<g clip-path="url(#clip0)">
<path d="M189.218 200.348C161.6 200.348 139.131 222.817 139.131 250.435C139.131 278.053 161.6 300.522 189.218 300.522C216.836 300.522 239.305 278.053 239.305 250.435C239.305 222.817 216.836 200.348 189.218 200.348ZM189.218 267.13C180.012 267.13 172.522 259.64 172.522 250.434C172.522 241.228 180.012 233.738 189.218 233.738C198.424 233.738 205.914 241.228 205.914 250.434C205.913 259.641 198.424 267.13 189.218 267.13Z" fill="#373636"/>
<path d="M322.783 333.913C295.165 333.913 272.696 356.382 272.696 384C272.696 411.618 295.165 434.087 322.783 434.087C350.401 434.087 372.87 411.618 372.87 384C372.87 356.382 350.401 333.913 322.783 333.913ZM322.783 400.696C313.577 400.696 306.087 393.206 306.087 384C306.087 374.794 313.577 367.304 322.783 367.304C331.989 367.304 339.479 374.794 339.479 384C339.479 393.206 331.989 400.696 322.783 400.696Z" fill="#373636"/>
<path d="M338.635 234.588C332.116 228.068 321.544 228.068 315.024 234.588L173.357 376.255C166.837 382.775 166.837 393.346 173.357 399.866C176.617 403.126 180.89 404.757 185.162 404.757C189.434 404.757 193.708 403.128 196.967 399.866L338.634 258.199C345.155 251.679 345.155 241.109 338.635 234.588Z" fill="#373636"/>
<path d="M456.348 0H55.652C46.432 0 38.956 7.475 38.956 16.696V495.305C38.956 501.092 41.952 506.466 46.874 509.507C51.797 512.55 57.943 512.824 63.118 510.238L122.434 480.58L181.75 510.238C186.45 512.588 191.982 512.588 196.683 510.238L256 480.58L315.316 510.238C317.666 511.413 320.225 512 322.782 512C325.34 512 327.899 511.412 330.248 510.238L389.564 480.58L448.88 510.238C454.053 512.825 460.2 512.55 465.124 509.507C470.046 506.465 473.042 501.091 473.042 495.305V16.696C473.044 7.475 465.569 0 456.348 0ZM439.652 468.29L397.031 446.98C392.331 444.63 386.799 444.63 382.098 446.98L322.782 476.638L263.466 446.98C261.116 445.805 258.557 445.218 256 445.218C253.443 445.218 250.883 445.806 248.534 446.98L189.218 476.638L129.902 446.98C125.202 444.63 119.67 444.63 114.969 446.98L72.348 468.29V33.391H439.652V468.29V468.29Z" fill="#373636"/>
<path d="M389.565 66.783H189.218C179.998 66.783 172.522 74.258 172.522 83.479C172.522 92.7 179.997 100.175 189.218 100.175H389.566C398.786 100.175 406.262 92.7 406.262 83.479C406.262 74.258 398.786 66.783 389.565 66.783Z" fill="#373636"/>
<path d="M389.565 133.565H189.218C179.998 133.565 172.522 141.04 172.522 150.261C172.522 159.482 179.997 166.957 189.218 166.957H389.566C398.786 166.957 406.262 159.482 406.262 150.261C406.262 141.04 398.786 133.565 389.565 133.565Z" fill="#373636"/>
<path d="M122.435 100.174C131.656 100.174 139.131 92.6989 139.131 83.478C139.131 74.257 131.656 66.782 122.435 66.782C113.214 66.782 105.739 74.257 105.739 83.478C105.739 92.6989 113.214 100.174 122.435 100.174Z" fill="#373636"/>
<path d="M122.435 166.957C131.656 166.957 139.131 159.482 139.131 150.261C139.131 141.04 131.656 133.565 122.435 133.565C113.214 133.565 105.739 141.04 105.739 150.261C105.739 159.482 113.214 166.957 122.435 166.957Z" fill="#373636"/>
</g>
<defs>
<clipPath id="clip0">
<rect width="512" height="512" fill="white"/>
</clipPath>
</defs>
</svg>
