<svg width="10" height="10" viewBox="0 0 10 10" fill="none" xmlns="http://www.w3.org/2000/svg">
<path d="M6.17828 5L9.75564 1.42265C10.0815 1.09683 10.0815 0.570185 9.75564 0.244365C9.42982 -0.081455 8.90317 -0.081455 8.57735 0.244365L5 3.82172L1.42265 0.244365C1.09683 -0.081455 0.570185 -0.081455 0.244365 0.244365C-0.0814549 0.570185 -0.0814549 1.09683 0.244365 1.42265L3.82172 5L0.244365 8.57735C-0.0814549 8.90317 -0.0814549 9.42982 0.244365 9.75564C0.406858 9.91813 0.620182 9.99979 0.833507 9.99979C1.04683 9.99979 1.26016 9.91813 1.42265 9.75564L5 6.17828L8.57735 9.75564C8.73984 9.91813 8.95317 9.99979 9.16649 9.99979C9.37982 9.99979 9.59314 9.91813 9.75564 9.75564C10.0815 9.42982 10.0815 8.90317 9.75564 8.57735L6.17828 5Z" fill="#BDBDBD"/>
</svg>
