<svg width="502" height="446" viewBox="0 0 502 446" fill="none" xmlns="http://www.w3.org/2000/svg">
<path d="M471.002 1.5H471L31 1.5L30.9983 1.5C23.1775 1.50865 15.6796 4.61927 10.1494 10.1494C4.61927 15.6796 1.50865 23.1775 1.5 30.9983V31L1.5 343L1.5 343.002C1.50865 350.822 4.61927 358.32 10.1494 363.851C15.6796 369.381 23.1775 372.491 30.9983 372.5H31H189.819L180.149 401.5H163C160.48 401.5 158.064 402.501 156.282 404.282C154.501 406.064 153.5 408.48 153.5 411V425.5H99C96.4804 425.5 94.0641 426.501 92.2825 428.282C90.5009 430.064 89.5 432.48 89.5 435C89.5 437.52 90.5009 439.936 92.2825 441.718C94.0641 443.499 96.4804 444.5 99 444.5H403C405.52 444.5 407.936 443.499 409.718 441.718C411.499 439.936 412.5 437.52 412.5 435C412.5 432.48 411.499 430.064 409.718 428.282C407.936 426.501 405.52 425.5 403 425.5H348.5V411C348.5 408.48 347.499 406.064 345.718 404.282C343.936 402.501 341.52 401.5 339 401.5H321.851L312.181 372.5H471H471.002C478.822 372.491 486.32 369.381 491.851 363.851C497.381 358.32 500.491 350.822 500.5 343.002V343V31V30.9983C500.491 23.1775 497.381 15.6795 491.851 10.1494C486.32 4.61927 478.822 1.50865 471.002 1.5ZM329.5 420.5V425.5H172.5V420.5H329.5ZM292.149 372.5L301.819 401.5H200.181L209.851 372.5H292.149ZM481.5 342.999C481.498 345.783 480.391 348.453 478.422 350.422C476.453 352.391 473.783 353.498 470.999 353.5H31.0012C28.2169 353.498 25.5472 352.391 23.5783 350.422C21.6094 348.453 20.5023 345.783 20.5 342.999V308.5H481.5V342.999ZM481.5 289.5H20.5V31.0012C20.5023 28.2169 21.6094 25.5472 23.5783 23.5783C25.5472 21.6094 28.2169 20.5023 31.0012 20.5H470.999C473.783 20.5023 476.453 21.6094 478.422 23.5783C480.391 25.5472 481.498 28.2169 481.5 31.0012V289.5Z" fill="#373636" stroke="#373636" stroke-width="3"/>
</svg>
