<svg width="20" height="21" viewBox="0 0 20 21" fill="none" xmlns="http://www.w3.org/2000/svg">
<path d="M19.1276 0.719354C18.2251 0.169223 17.2184 1.23019 16.6284 1.85891C15.2747 3.35213 14.1292 5.08111 12.8448 6.65292C11.4216 8.3819 10.1026 10.1109 8.64469 11.8006C7.81161 12.7437 6.90911 13.7654 6.35373 14.9443C5.10411 13.5689 4.02805 12.0756 2.63959 10.8576C1.63295 9.99307 -0.0332012 9.36434 0.0015104 11.447C0.0709335 14.1584 2.18834 17.0663 3.75036 18.9131C4.40988 19.699 5.27767 20.5242 6.2843 20.5635C7.49921 20.642 8.74882 18.9916 9.47777 18.0879C10.7622 16.5161 11.8035 14.7477 12.9836 13.1367C14.5109 11.0147 16.073 8.93203 17.5656 6.7708C18.5028 5.43477 21.4533 2.13391 19.1276 0.719354ZM1.52876 11.2898C1.49405 11.2898 1.45934 11.2898 1.38992 11.329C1.25107 11.2898 1.14694 11.2504 1.00809 11.1719C1.11222 11.0933 1.28578 11.1326 1.52876 11.2898Z" fill="#04D119"/>
</svg>
