<svg width="20" height="20" viewBox="0 0 20 20" fill="none" xmlns="http://www.w3.org/2000/svg">
<g clip-path="url(#clip0)">
<path d="M14.023 7.60399C14.023 6.49321 13.5581 5.48923 12.8124 4.77661C11.3858 6.44552 8.8277 6.46282 7.37739 4.82001C6.65781 5.52911 6.21094 6.51513 6.21094 7.60399V8.97056H14.023V7.60399Z" fill="#373636"/>
<path d="M9.06466 4.64473C10.6656 5.38281 12.5073 4.20703 12.5073 2.43336C12.5073 1.0916 11.4171 0 10.077 0C7.92614 0 6.84907 2.59348 8.33317 4.12586C8.32474 4.1302 8.64704 4.45234 9.06466 4.64473V4.64473Z" fill="#373636"/>
<path d="M18.7899 15.8062C17.3633 17.4751 14.8052 17.4924 13.3549 15.8496C12.6354 16.5587 12.1885 17.5447 12.1885 18.6335V20.0001H20.0005V18.6335C20.0005 17.5228 19.5356 16.5188 18.7899 15.8062Z" fill="#373636"/>
<path d="M14.3097 15.1554C14.3096 15.1555 14.3094 15.1556 14.3092 15.1557C15.1064 15.9787 16.3634 16.1345 17.3334 15.5303C19.4168 14.2312 18.4699 11.0295 16.0535 11.0295C13.9027 11.0295 12.8256 13.623 14.3097 15.1554Z" fill="#373636"/>
<path d="M6.60145 15.8062C5.17488 17.4751 2.61676 17.4924 1.16648 15.8496C0.446875 16.5587 0 17.5447 0 18.6335V20.0001H7.81203V18.6335C7.81203 17.5228 7.34715 16.5188 6.60145 15.8062Z" fill="#373636"/>
<path d="M2.12071 15.1556C3.63661 16.7207 6.29539 15.6412 6.29539 13.4629C6.29539 12.1211 5.20516 11.0295 3.86504 11.0295C1.71423 11.0295 0.637158 13.623 2.12126 15.1554C2.12106 15.1555 2.12091 15.1556 2.12071 15.1556V15.1556Z" fill="#373636"/>
<path d="M7.71094 14.7893L8.53957 13.9607C9.55788 14.979 10.4425 14.9792 11.4609 13.9607L12.2896 14.7893C10.8427 16.2362 9.2223 16.3007 7.71094 14.7893V14.7893Z" fill="#373636"/>
<path d="M2.93066 8.55594H1.75879C1.75879 6.51414 2.85469 5.31836 4.99641 5.31836V6.49023C3.55625 6.4902 2.93066 7.11551 2.93066 8.55594V8.55594Z" fill="#373636"/>
<path d="M18.2757 8.55398H17.1038C17.1038 7.11383 16.4784 6.48828 15.0381 6.48828V5.31641C17.0841 5.31641 18.2757 6.41656 18.2757 8.55398Z" fill="#373636"/>
</g>
<defs>
<clipPath id="clip0">
<rect width="20" height="20" fill="white"/>
</clipPath>
</defs>
</svg>
