<svg width="512" height="512" viewBox="0 0 512 512" fill="none" xmlns="http://www.w3.org/2000/svg">
<path d="M488 24H224C211.274 24.0127 199.072 29.0739 190.073 38.0729C181.074 47.0719 176.013 59.2735 176 72V104H64C51.2735 104.013 39.0719 109.074 30.0729 118.073C21.0739 127.072 16.0127 139.274 16 152V440C16.0127 452.726 21.0739 464.928 30.0729 473.927C39.0719 482.926 51.2735 487.987 64 488H328C330.122 488 332.157 487.157 333.657 485.657C335.157 484.157 336 482.122 336 480V456C336 453.878 335.157 451.843 333.657 450.343C332.157 448.843 330.122 448 328 448V432C330.122 432 332.157 431.157 333.657 429.657C335.157 428.157 336 426.122 336 424V408H488C490.122 408 492.157 407.157 493.657 405.657C495.157 404.157 496 402.122 496 400V376C496 373.878 495.157 371.843 493.657 370.343C492.157 368.843 490.122 368 488 368V352C490.122 352 492.157 351.157 493.657 349.657C495.157 348.157 496 346.122 496 344V32C496 29.8783 495.157 27.8434 493.657 26.3431C492.157 24.8429 490.122 24 488 24V24ZM480 336H240V328H480V336ZM224 392C215.513 392 207.374 388.629 201.373 382.627C195.371 376.626 192 368.487 192 360C192 351.513 195.371 343.374 201.373 337.373C207.374 331.371 215.513 328 224 328V392ZM224 40V312C212.176 312.003 200.773 316.393 192 324.32V72C192 63.5131 195.371 55.3737 201.373 49.3726C207.374 43.3714 215.513 40 224 40ZM176 360C176.003 371.824 180.393 383.227 188.32 392H80V120H176V360ZM64 120V392C52.1759 392.003 40.7735 396.393 32 404.32V152C32 143.513 35.3714 135.374 41.3726 129.373C47.3737 123.371 55.5131 120 64 120V120ZM32 440C32 431.513 35.3714 423.374 41.3726 417.373C47.3737 411.371 55.5131 408 64 408V472C55.5131 472 47.3737 468.629 41.3726 462.627C35.3714 456.626 32 448.487 32 440ZM320 472H80V464H320V472ZM312 448H80V432H312V448ZM320 416H80V408H320V416ZM480 392H240V384H480V392ZM472 368H240V352H472V368ZM480 312H240V40H480V312Z" fill="#373636"/>
<path d="M440 72H280C277.878 72 275.843 72.8429 274.343 74.3431C272.843 75.8434 272 77.8783 272 80V144C272 146.122 272.843 148.157 274.343 149.657C275.843 151.157 277.878 152 280 152H440C442.122 152 444.157 151.157 445.657 149.657C447.157 148.157 448 146.122 448 144V80C448 77.8783 447.157 75.8434 445.657 74.3431C444.157 72.8429 442.122 72 440 72ZM432 136H288V88H432V136Z" fill="#373636"/>
</svg>
