<svg width="512" height="512" viewBox="0 0 512 512" fill="none" xmlns="http://www.w3.org/2000/svg">
<path d="M232.01 385.41C219.31 361.96 194.48 346 166 346H136C127.72 346 121 339.28 121 331V76H91C82.716 76 76 82.716 76 91V376H196C208.75 376 221.12 379.34 232.01 385.41Z" fill="#373636"/>
<path d="M241 347.59V121C241 79.564 207.254 46 166 46C157.715 46 151 52.715 151 61V316H166C195.35 316 221.93 328.1 241 347.59Z" fill="#373636"/>
<path d="M436 376V91C436 82.716 429.284 76 421 76H316C291.19 76 271 96.19 271 121V391.26C283.82 381.53 299.59 376 316 376H436Z" fill="#373636"/>
<path d="M512 121C512 112.72 505.28 106 497 106H466V391C466 399.28 459.28 406 451 406H316C299.97 406 285.5 414.43 277.29 428.54C274.6 433.16 269.66 436 264.32 436H247.68C242.34 436 237.4 433.16 234.71 428.54C226.5 414.43 212.03 406 196 406H61C52.72 406 46 399.28 46 391V106H15C6.72 106 0 112.72 0 121V451C0 459.28 6.72 466 15 466H497C505.28 466 512 459.28 512 451V121Z" fill="#373636"/>
</svg>
