<svg width="518" height="518" viewBox="0 0 518 518" fill="none" xmlns="http://www.w3.org/2000/svg">
<path d="M191.876 230.074H332.039C338.269 230.074 343.326 225.029 343.326 218.787C343.326 212.556 338.269 207.5 332.039 207.5H191.876C185.645 207.5 180.589 212.556 180.589 218.787C180.589 225.017 185.634 230.074 191.876 230.074Z" fill="#373636" stroke="#373636" stroke-width="2"/>
<path d="M191.876 158.064H290.89H332.039C338.269 158.064 343.326 153.019 343.326 146.777C343.326 140.546 338.269 135.49 332.039 135.49H290.89H191.876C185.645 135.49 180.589 140.546 180.589 146.777C180.589 153.007 185.634 158.064 191.876 158.064Z" fill="#373636" stroke="#373636" stroke-width="2"/>
<path d="M2.96808 514.211C2.97085 514.215 2.97183 514.217 2.97405 514.22C2.97645 514.224 2.98028 514.229 2.98934 514.243C3.00112 514.261 3.02291 514.293 3.04997 514.329C3.07734 514.365 3.11766 514.416 3.17094 514.469L3.18234 514.48L3.19411 514.491C3.52921 514.805 3.88726 515.024 4.195 515.197C4.31383 515.264 4.41779 515.32 4.51354 515.372C4.58636 515.411 4.65444 515.448 4.72072 515.485C4.82951 515.548 4.93031 515.607 5.01968 515.662L6.08145 513.967C6.0143 513.925 5.94457 513.882 5.87421 513.841C5.74801 513.765 5.63028 513.697 5.5198 513.632C5.08183 513.376 4.75789 513.186 4.472 512.9L2.98402 514.232C2.97525 514.221 2.96957 514.213 2.96808 514.211ZM2.96808 514.211C2.96808 514.211 2.96807 514.211 2.96806 514.211L2.96808 514.211Z" fill="#373636" stroke="#373636" stroke-width="2"/>
<path d="M-0.077978 187.657C-0.0767674 187.651 -0.0733827 187.635 -0.0672341 187.614L-0.0669336 187.613C-0.0623055 187.597 -0.0397225 187.519 0.0132759 187.425C0.0400164 187.378 0.101702 187.277 0.212999 187.177C0.317857 187.084 0.510975 186.955 0.781361 186.93C0.104659 187.203 -0.207037 187.879 -0.207762 187.897L-0.208375 187.925L-0.208894 187.977C-0.209182 188.018 -0.209435 188.077 -0.209661 188.155C-0.210114 188.31 -0.21047 188.541 -0.210733 188.844C-0.211259 189.451 -0.211416 190.351 -0.211227 191.525C-0.21085 193.872 -0.209092 197.315 -0.206139 201.697C-0.200231 210.46 -0.189542 222.978 -0.175558 238.001C-0.14759 268.045 -0.106441 308.105 -0.0640066 348.165C-0.0215719 388.224 0.0221485 428.284 0.0552604 458.328L0.0954848 494.632L0.106842 504.804L0.109844 507.483L0.110615 508.17L0.11081 508.344L0.110859 508.388L0.110871 508.399C0.110874 508.401 0.110875 508.403 1.11087 508.402L0.110875 508.403L0.111226 508.715L0.289159 508.971L0.550574 509.348C0.550329 509.456 0.551582 509.574 0.557058 509.682C0.569301 509.926 0.6051 510.271 0.750224 510.603C1.00172 511.178 1.31865 511.678 1.62002 512.136C1.71413 512.281 1.80477 512.435 1.90371 512.604L1.94366 512.673C2.02929 512.82 2.12268 512.98 2.22003 513.138C2.44688 513.504 2.72722 513.909 3.11358 514.277C3.61573 514.759 4.22272 515.128 4.71804 515.429C4.82595 515.495 4.92857 515.557 5.02364 515.617L5.03069 515.621L5.03782 515.625C5.18588 515.715 5.31829 515.81 5.48362 515.928C5.54928 515.975 5.62013 516.026 5.69921 516.082C5.95056 516.259 6.26638 516.47 6.63636 516.626L6.64987 516.632L6.66355 516.637C6.77349 516.673 6.91513 516.7 6.9466 516.703C6.96331 516.704 6.98858 516.706 7.00396 516.707C7.03263 516.708 7.06647 516.709 7.1013 516.71C7.17281 516.713 7.27317 516.715 7.39942 516.717C7.65308 516.721 8.02494 516.726 8.5098 516.731C9.48016 516.741 10.9105 516.753 12.7693 516.767C16.4872 516.794 21.9234 516.827 28.8317 516.866C42.6485 516.943 62.3562 517.041 85.9894 517.153C133.256 517.378 196.226 517.656 259.178 517.928C322.13 518.2 385.066 518.466 432.262 518.663C455.861 518.761 475.525 518.843 489.289 518.9L505.265 518.966L509.474 518.983L510.553 518.988L510.826 518.989L510.895 518.989L510.912 518.989C510.914 518.989 510.915 518.989 510.915 518.96C510.918 518.895 510.919 518.683 510.922 517.989L510.918 518.989L510.971 518.989L511.023 518.984L510.997 518.726C511.024 518.984 511.024 518.984 511.024 518.984L511.025 518.984L511.027 518.984L511.032 518.983L511.05 518.981C511.065 518.98 511.086 518.977 511.112 518.974C511.165 518.968 511.239 518.958 511.332 518.945C511.518 518.919 511.781 518.877 512.094 518.816C512.717 518.695 513.561 518.491 514.417 518.165C515.262 517.842 516.181 517.375 516.903 516.695C517.643 515.997 518.197 515.048 518.197 513.833V513.833V513.832V513.832V513.831V513.831V513.83V513.83V513.829V513.829V513.828V513.828V513.827V513.827V513.826V513.826V513.825V513.824V513.824V513.823V513.823V513.822V513.822V513.821V513.821V513.82V513.82V513.819V513.819V513.818V513.818V513.817V513.817V513.816V513.816V513.815V513.814V513.814V513.813V513.813V513.812V513.812V513.811V513.81V513.81V513.809V513.809V513.808V513.808V513.807V513.807V513.806V513.806V513.805V513.805V513.804V513.804V513.803V513.802V513.802V513.801V513.801V513.8V513.799V513.799V513.798V513.798V513.797V513.797V513.796V513.796V513.795V513.795V513.794V513.794V513.793V513.792V513.792V513.791V513.791V513.79V513.79V513.789V513.788V513.788V513.787V513.787V513.786V513.786V513.785V513.785V513.784V513.784V513.783V513.783V513.782V513.782V513.781V513.781V513.78V513.78V513.779V513.778V513.778V513.777V513.777V513.776V513.776V513.775V513.775V513.774V513.774V513.773V513.773V513.772V513.772V487.148V219.787H518.208V218.787V187.03V187.03V187.029V187.029V187.028V187.028V187.027V187.027V187.026V187.026V187.025V187.025V187.024V187.024V187.023V187.023V187.022V187.022V187.021V187.021V187.02V187.02V187.019V187.019V187.018V187.018V187.017V187.017V187.016V187.016V187.015V187.015V187.014V187.014V187.013V187.013V187.012V187.012V187.011V187.01V187.01V187.009V187.009V187.008V187.008V187.007V187.007V187.006V187.006V187.005V187.005V187.004V187.003V187.003V187.002V187.002V187.001V187.001V187V187V186.999V186.999V186.998V186.998V186.997V186.997V186.996V186.996V186.995V186.995V186.994V186.994V186.993V186.993V186.992V186.992V186.991V186.991V186.99V186.99V186.989V186.989V186.988V186.988V186.987V186.987V186.986V186.986V186.985V186.985V186.984V186.984V186.983V186.983V186.982V186.982V186.981V186.981V186.98V186.98V186.979V186.979V186.978V186.978V186.977V186.976V186.976V186.975V186.975V186.974V186.974V186.973V186.973V186.972V186.972V186.971V186.97V186.97V186.969V186.969V186.968V186.968V186.967V186.966V186.966V186.965V186.965V186.964V186.964V186.963V186.962V186.962V186.961V186.961V186.96V186.96V186.959V186.958V186.958V186.957V186.957V186.956V186.955V186.955V186.954V186.954V186.953V186.953V186.952V186.951V186.951V186.95V186.95V186.949V186.948V186.948V186.947V186.947V186.946V186.945V186.945V186.944V186.944V186.943V186.942V186.942V186.941V186.941V186.94V186.94V186.939V186.938V186.938V186.937V186.937V186.936V186.935V186.935V186.934V186.934V186.933V186.933V186.932V186.931V186.931V186.93V186.93V186.929V186.928V186.928V186.927V186.927V186.926V186.926V186.925V186.925V186.924V186.923V186.923V186.922V186.922V186.921V186.921V186.92V186.92V186.919V186.918V186.918V186.917V186.917V186.916V186.916V186.915V186.915V186.914V186.914V186.913V186.913V186.912V186.911V186.911V186.91V186.91V186.909V186.909V186.908V186.908V186.907V186.907V186.906V186.906V186.905V186.905V186.904V186.904V186.903V186.903V186.903V186.902V186.901V186.901V186.9V186.9V186.899V186.898V186.898V186.897V186.896V186.896V186.895V186.894V186.894V186.893V186.893V186.892V186.891V186.891V186.89V186.89V186.889V186.889V186.888V186.888V186.887V186.887V186.886V186.886V186.885V186.884V186.884V186.883V186.883V186.882V186.882V186.881V186.881V186.88V186.88V186.879V186.879V186.878V186.878V186.877V186.877V186.876V179.387V176.63V176.091L517.758 175.795L415.498 108.455L415.483 108.445L394.642 94.1499L394.636 94.146L353.623 65.5929V65.4795H355.912L353.298 63.6589L264.155 1.57451C259.663 -2.56206 253.443 -1.35433 249.252 2.64712L166.14 63.4795H105.742H104.742V64.4795V106.152L104.013 106.672L100.768 108.988L89.1876 117.251C79.6039 124.089 66.8263 133.207 54.0503 142.325C41.2742 151.443 28.4998 160.56 18.9225 167.397C14.1339 170.816 10.1445 173.665 7.35379 175.658C5.95848 176.655 4.86267 177.439 4.11643 177.972C3.74336 178.239 3.45733 178.444 3.26482 178.582C3.1687 178.651 3.09522 178.704 3.04568 178.74L2.98679 178.783L2.96394 178.799L2.96009 178.802C2.94331 178.815 2.92602 178.829 2.90847 178.844C2.82944 178.911 2.69738 179.046 2.61867 179.261C2.58915 179.342 2.56894 179.43 2.56136 179.523C2.30627 179.856 2.08605 180.2 1.89651 180.496C1.82937 180.601 1.76608 180.7 1.70645 180.79L1.70409 180.794C1.44818 181.185 1.19282 181.826 0.997898 182.339C0.909225 182.572 0.829357 182.789 0.757769 182.983C0.64975 183.276 0.56058 183.518 0.488451 183.688L0.48371 183.699L0.479242 183.71C0.344837 184.05 0.261704 184.505 0.202947 184.908C0.140467 185.338 0.0922537 185.813 0.0532339 186.243C0.0330338 186.466 0.0162867 186.665 0.00111663 186.845C-0.0147555 187.033 -0.028901 187.201 -0.0434683 187.354C-0.0571958 187.499 -0.0679425 187.593 -0.0758379 187.644C-0.0768064 187.65 -0.077531 187.654 -0.077978 187.657ZM-0.077978 187.657C-0.0783567 187.659 -0.0785275 187.66 -0.0784974 187.66C-0.078471 187.66 -0.0782939 187.659 -0.077978 187.657ZM3.3631 178.623C3.70121 178.788 3.91034 179.019 4.03728 179.259C3.87423 179.376 3.7517 179.464 3.67153 179.521L3.3631 178.623ZM3.72959 179.691L3.70687 179.624C3.73204 179.628 3.75395 179.631 3.76616 179.635C3.77475 179.638 3.77853 179.641 3.77525 179.644C3.7599 179.66 3.74469 179.675 3.72959 179.691ZM254.659 254.492L254.652 254.492L226.852 269.235L226.187 268.489C226.186 268.489 226.186 268.49 226.185 268.49C211.594 281.501 190.547 301.554 167.804 324.517L127.306 284.832V117.304V116.304H127.295V91.9462V86.0538H137.704H173.874H292.053H324.714H345.016L392.762 120.572V284.019L345.473 331.922C338.883 325.641 332.477 319.526 326.327 313.655C307.38 295.567 290.863 279.799 278.887 268.647C268.708 259.168 261.516 254.776 254.659 254.492ZM24.4237 476.962V476.851V213.772L152.325 341.542C152.361 341.587 152.395 341.623 152.424 341.651C152.443 341.669 152.461 341.684 152.478 341.699C152.486 341.706 152.495 341.713 152.503 341.719C141.753 352.687 130.443 364.062 119.126 375.444C104.783 389.869 90.4285 404.306 77.1859 417.942C54.6493 441.147 35.2264 462.137 24.4237 476.962ZM266.209 285.717C314.198 330.408 435.325 443.348 483.691 495.53H36.9902C53.0168 477.796 98.5692 430.357 142.698 384.923C189.035 337.216 233.718 291.808 240.973 285.341C241.41 284.952 241.844 284.561 242.275 284.173C244.049 282.576 245.781 281.016 247.521 279.758C249.674 278.199 251.677 277.227 253.581 277.18C255.602 277.301 257.147 277.931 258.973 279.261C260.553 280.411 262.29 282.041 264.685 284.289C265.165 284.74 265.671 285.215 266.208 285.716L266.209 285.717ZM411.324 299.369L495.623 213.8V479.1C484.744 465.408 464.588 445.55 440.964 423.234C430.032 412.906 418.358 402.054 406.496 391.027C391.435 377.026 376.073 362.745 361.542 348.901L362.954 347.485C364.311 346.122 366.252 344.175 368.584 341.837C373.247 337.162 379.474 330.923 385.73 324.67C391.985 318.417 398.268 312.151 403.043 307.42C405.431 305.054 407.44 303.074 408.88 301.672C409.6 300.971 410.175 300.417 410.582 300.033C410.678 299.942 410.764 299.862 410.839 299.792C410.924 299.714 410.995 299.649 411.054 299.597C411.09 299.564 411.119 299.539 411.14 299.521L411.208 299.487L411.324 299.369ZM415.336 261.907V136.07L490.39 187.887L415.336 261.907ZM206.202 63.4692L257.681 27.1718L310.673 63.4692H292.053H206.202ZM29.1155 187.772L104.721 133.752V262.711L29.1155 187.772Z" fill="#373636" stroke="#373636" stroke-width="2"/>
</svg>
