<svg id="Layer_1" data-name="Layer 1" xmlns="http://www.w3.org/2000/svg" xmlns:xlink="http://www.w3.org/1999/xlink" viewBox="0 0 169 46"><defs><style>.cls-1{fill:none;}.cls-2{fill:#4fede6;}.cls-3{clip-path:url(#clip-path);}.cls-4{fill:#0f87e9;}.cls-5{fill:#373636;}</style><clipPath id="clip-path"><rect class="cls-1" x="3.42" y="0.96" width="162.17" height="44"/></clipPath></defs><title>Propair_Logo_SVG</title><polygon class="cls-2" points="23.63 34.62 14.63 29.45 14.63 39.72 23.67 44.96 43.88 33.36 43.88 23 23.63 34.62"/><g class="cls-3"><path class="cls-4" d="M43.92,12.58L23.67,1,3.42,12.57V33.25l9,5.18s0.07-8.76,0-12.84L23.67,32,43.92,20.4V12.58ZM23.66,21.64l-9-5.12,9-5.12,9,5.12Z"/><path class="cls-5" d="M64.67,10.63H55.41V35.46h4.89V27.3h4.36a8.25,8.25,0,0,0,6-2.41A8,8,0,0,0,73.15,19,8,8,0,0,0,70.7,13a8.26,8.26,0,0,0-6-2.41m2.59,11a3.42,3.42,0,0,1-2.59,1.08H60.31V15.21h4.36a3.45,3.45,0,0,1,2.59,1.06,3.73,3.73,0,0,1,1,2.7,3.74,3.74,0,0,1-1,2.68"/><path class="cls-5" d="M79.77,20.77v-3H75.19V35.46h4.58V27a4.07,4.07,0,0,1,1.65-3.65,5.39,5.39,0,0,1,3.74-.85V17.37a6.44,6.44,0,0,0-3.28.85,4.78,4.78,0,0,0-2.11,2.55"/><path class="cls-5" d="M95.53,17.23a9.27,9.27,0,0,0-9.36,9.36,9.38,9.38,0,1,0,18.76,0,9.29,9.29,0,0,0-9.4-9.36M99,30.1a4.68,4.68,0,0,1-3.44,1.38,4.62,4.62,0,0,1-3.42-1.38,4.79,4.79,0,0,1-1.37-3.51,4.79,4.79,0,0,1,1.37-3.51,4.61,4.61,0,0,1,3.42-1.38A4.67,4.67,0,0,1,99,23.08a4.76,4.76,0,0,1,1.38,3.51A4.76,4.76,0,0,1,99,30.1"/><path class="cls-5" d="M116.87,10.63h-9.26V35.46h4.89V27.3h4.36a8.25,8.25,0,0,0,6-2.41A8,8,0,0,0,125.35,19,8,8,0,0,0,122.9,13a8.26,8.26,0,0,0-6-2.41m2.59,11a3.42,3.42,0,0,1-2.59,1.08h-4.36V15.21h4.36a3.45,3.45,0,0,1,2.59,1.06,3.73,3.73,0,0,1,1,2.7,3.74,3.74,0,0,1-1,2.68"/><path class="cls-5" d="M140.09,19.82a7,7,0,0,0-5.78-2.59,8,8,0,0,0-6.08,2.71,9.38,9.38,0,0,0-2.54,6.65,9.38,9.38,0,0,0,2.54,6.65A8,8,0,0,0,134.31,36a7,7,0,0,0,5.78-2.59v2.09h4.58V17.72h-4.58v2.09Zm-1.4,10.37a4.79,4.79,0,0,1-3.53,1.4,4.73,4.73,0,0,1-3.51-1.4,4.91,4.91,0,0,1-1.38-3.6,4.91,4.91,0,0,1,1.38-3.6,4.73,4.73,0,0,1,3.51-1.4,4.78,4.78,0,0,1,3.53,1.4,4.88,4.88,0,0,1,1.4,3.6,4.88,4.88,0,0,1-1.4,3.6"/><path class="cls-5" d="M150.12,10a2.66,2.66,0,0,0-2,.85,2.75,2.75,0,0,0-.83,2,2.85,2.85,0,0,0,2.8,2.8,2.74,2.74,0,0,0,2-.83,2.7,2.7,0,0,0,.83-2,2.75,2.75,0,0,0-.83-2,2.7,2.7,0,0,0-2-.85"/><rect class="cls-5" x="147.85" y="17.72" width="4.58" height="17.73"/><path class="cls-5" d="M162.3,18.22a4.78,4.78,0,0,0-2.11,2.55v-3h-4.58V35.46h4.58V27a4.07,4.07,0,0,1,1.65-3.65,5.39,5.39,0,0,1,3.74-.85V17.37a6.44,6.44,0,0,0-3.28.85"/></g></svg>