<svg width="20" height="20" viewBox="0 0 20 20" fill="none" xmlns="http://www.w3.org/2000/svg">
<path d="M18.2895 20C17.8517 20 17.4142 19.8328 17.0802 19.4988L0.502051 2.92004C-0.166048 2.25194 -0.166048 1.16855 0.502051 0.501074C1.17015 -0.167025 2.25261 -0.167025 2.92102 0.501074L19.4991 17.0798C20.1672 17.7479 20.1672 18.8313 19.4991 19.4988C19.1648 19.8328 18.727 20 18.2895 20Z" fill="#F45050"/>
<path d="M1.71138 19.9999C1.27358 19.9999 0.8361 19.8328 0.502051 19.4987C-0.166048 18.8312 -0.166048 17.7481 0.502051 17.0797L17.0802 0.501318C17.7483 -0.166781 18.8307 -0.166781 19.4991 0.501318C20.1672 1.16879 20.1672 2.25187 19.4991 2.92029L2.92071 19.4987C2.58666 19.8328 2.14917 19.9999 1.71138 19.9999Z" fill="#F45050"/>
</svg>
