<svg width="512" height="512" viewBox="0 0 512 512" fill="none" xmlns="http://www.w3.org/2000/svg">
<g clip-path="url(#clip0)">
<path d="M124.52 239.304H16.696C7.475 239.304 0 246.78 0 256V471.647C0 480.867 7.475 488.343 16.696 488.343H124.52C133.74 488.343 141.216 480.868 141.216 471.647V256C141.215 246.778 133.74 239.304 124.52 239.304ZM107.824 454.951H33.391V272.696H107.824V454.951V454.951Z" fill="#373636"/>
<path d="M309.912 23.658H202.089C192.869 23.658 185.393 31.132 185.393 40.354V471.647C185.393 480.867 192.868 488.343 202.089 488.343H309.913C319.133 488.343 326.609 480.868 326.609 471.647V40.353C326.608 31.132 319.133 23.658 309.912 23.658ZM293.217 454.951H218.784V57.049H293.217V454.951Z" fill="#373636"/>
<path d="M495.304 131.48H387.481C378.261 131.48 370.785 138.955 370.785 148.176V471.646C370.785 480.866 378.26 488.342 387.481 488.342H495.305C504.525 488.342 512.001 480.867 512.001 471.646V148.176C512 138.956 504.525 131.48 495.304 131.48ZM478.609 454.951H404.176V164.872H478.609V454.951Z" fill="#373636"/>
</g>
<defs>
<clipPath id="clip0">
<rect width="512" height="512" fill="white"/>
</clipPath>
</defs>
</svg>
