<svg width="512" height="512" viewBox="0 0 512 512" fill="none" xmlns="http://www.w3.org/2000/svg">
<path d="M367.398 231.898C367.398 240.184 360.684 246.898 352.398 246.898C344.117 246.898 337.398 240.184 337.398 231.898C337.398 223.617 344.117 216.898 352.398 216.898C360.684 216.898 367.398 223.617 367.398 231.898Z" fill="#373636"/>
<path d="M352.383 72.3008C321.934 72.3008 297.234 96.9414 297.234 127.449V127.469C297.234 135.75 303.949 142.461 312.234 142.461C320.52 142.461 327.234 135.734 327.234 127.449C327.234 113.582 338.449 102.301 352.402 102.301C366.277 102.301 377.566 113.59 377.566 127.469C377.566 141.344 366.277 152.633 352.402 152.633C344.117 152.633 337.402 159.352 337.402 167.633V183.699C337.402 191.984 344.117 198.699 352.402 198.699C360.684 198.699 367.402 191.984 367.402 183.699V180.562C390.555 174.012 407.566 152.688 407.566 127.469C407.566 97.0469 382.82 72.3008 352.383 72.3008V72.3008Z" fill="#373636"/>
<path d="M143.938 382.812C162.578 368.297 174.602 345.664 174.602 320.266C174.602 276.559 139.039 241 95.332 241C51.625 241 16.0664 276.559 16.0664 320.266C16.0664 345.664 28.0898 368.297 46.7266 382.812C20.4219 398.461 0 428.016 0 464.867V497C0 505.285 6.71484 512 15 512H175.668C183.949 512 190.668 505.285 190.668 497V464.867C190.668 428.023 170.25 398.465 143.938 382.812ZM46.0664 320.266C46.0664 293.102 68.168 271 95.3359 271C122.5 271 144.602 293.102 144.602 320.266C144.602 347.434 122.5 369.535 95.3359 369.535C68.168 369.535 46.0664 347.434 46.0664 320.266ZM160.668 482H30V464.867C30 428.781 59.1953 399.535 95.332 399.535C131.418 399.535 160.664 428.73 160.664 464.867V482H160.668Z" fill="#373636"/>
<path d="M448.801 0H256C221.094 0 192.801 28.2422 192.801 63.1992V352.398C192.801 364.668 206.871 371.844 216.801 364.398L277.066 319.199H448.801C483.707 319.199 512 290.957 512 256V63.1992C512 28.293 483.758 0 448.801 0V0ZM482 256C482 274.352 467.16 289.199 448.801 289.199H272.066C268.82 289.199 265.664 290.254 263.066 292.199L222.801 322.398V63.1992C222.801 44.8477 237.641 30 256 30H448.801C467.152 30 482 44.8398 482 63.1992V256Z" fill="#373636"/>
</svg>
