<svg width="197" height="197" viewBox="0 0 197 197" fill="none" xmlns="http://www.w3.org/2000/svg">
<g clip-path="url(#clip0)">
<path d="M3.14878 106.154L74.2924 177.299C76.3233 179.33 79.03 180.445 81.9161 180.445C84.8054 180.445 87.5105 179.329 89.5414 177.299L96.0007 170.838C98.0299 168.811 99.1479 166.102 99.1479 163.215C99.1479 160.329 98.0299 157.529 96.0007 155.501L54.4965 113.906L186.357 113.906C192.302 113.906 197 109.252 197 103.305L197 94.1709C197 88.2241 192.302 83.1005 186.357 83.1005L54.0256 83.1005L95.9991 41.2728C98.0283 39.242 99.1463 36.6073 99.1463 33.7196C99.1463 30.8351 98.0283 28.162 95.9991 26.1328L89.5398 19.6927C87.5089 17.6618 84.8038 16.5551 81.9145 16.5551C79.0284 16.5551 76.3217 17.6762 74.2908 19.7071L3.14718 90.8507C1.11153 92.888 -0.00799122 95.6075 1.65907e-05 98.4984C-0.00639011 101.399 1.11153 104.12 3.14878 106.154Z" fill="#BDBDBD"/>
</g>
<defs>
<clipPath id="clip0">
<rect width="197" height="197" fill="white" transform="translate(197 197) rotate(-180)"/>
</clipPath>
</defs>
</svg>
