<svg width="457" height="446" viewBox="0 0 457 446" fill="none" xmlns="http://www.w3.org/2000/svg">
<g clip-path="url(#clip0)">
<path d="M343.45 401.97H313.28C312.772 394.112 309.292 386.742 303.548 381.355C297.803 375.969 290.225 372.971 282.35 372.97H217.49C209.268 372.97 201.383 376.236 195.57 382.05C189.756 387.863 186.49 395.748 186.49 403.97V411.87C186.49 420.092 189.756 427.977 195.57 433.79C201.383 439.604 209.268 442.87 217.49 442.87H282.35C290.208 442.87 297.774 439.886 303.516 434.521C309.258 429.156 312.748 421.81 313.28 413.97H343.45C357.454 413.954 370.88 408.384 380.782 398.482C390.684 388.58 396.254 375.154 396.27 361.15V340.15H409.7C421.589 340.129 432.984 335.391 441.383 326.977C449.783 318.562 454.5 307.159 454.5 295.27V243.5C454.484 231.621 449.76 220.233 441.362 211.832C432.964 203.431 421.579 198.701 409.7 198.68H396.27V170.27C396.27 77.76 321.01 2.5 228.5 2.5C135.99 2.5 60.7 77.76 60.7 170.27V198.68H47.32C35.4379 198.696 24.0469 203.423 15.645 211.825C7.24307 220.227 2.51587 231.618 2.5 243.5V295.27C2.51587 307.152 7.24307 318.543 15.645 326.945C24.0469 335.347 35.4379 340.074 47.32 340.09H92.61C94.2013 340.09 95.7274 339.458 96.8526 338.333C97.9778 337.207 98.61 335.681 98.61 334.09V204.68C98.61 203.089 97.9778 201.563 96.8526 200.437C95.7274 199.312 94.2013 198.68 92.61 198.68H72.7V170.27C72.7 84.38 142.58 14.5 228.47 14.5C314.36 14.5 384.27 84.38 384.27 170.27V198.68H364.38C362.789 198.68 361.263 199.312 360.137 200.437C359.012 201.563 358.38 203.089 358.38 204.68V334.09C358.38 335.681 359.012 337.207 360.137 338.333C361.263 339.458 362.789 340.09 364.38 340.09H384.26V361.09C384.265 371.922 379.97 382.312 372.317 389.978C364.665 397.643 354.282 401.957 343.45 401.97V401.97ZM301.35 411.92C301.35 416.959 299.348 421.792 295.785 425.355C292.222 428.918 287.389 430.92 282.35 430.92H217.49C212.451 430.92 207.618 428.918 204.055 425.355C200.492 421.792 198.49 416.959 198.49 411.92V403.97C198.49 398.931 200.492 394.098 204.055 390.535C207.618 386.972 212.451 384.97 217.49 384.97H282.35C287.389 384.97 292.222 386.972 295.785 390.535C299.348 394.098 301.35 398.931 301.35 403.97V411.87V411.92ZM86.62 210.68V328.09H47.32C38.6197 328.077 30.2794 324.615 24.1274 318.463C17.9753 312.311 14.5132 303.97 14.5 295.27V243.5C14.5106 234.799 17.9718 226.457 24.1244 220.304C30.2771 214.152 38.6188 210.691 47.32 210.68H86.61H86.62ZM370.38 328.09V210.68H409.7C418.401 210.691 426.743 214.152 432.896 220.304C439.048 226.457 442.509 234.799 442.52 243.5V295.27C442.507 303.97 439.045 312.311 432.893 318.463C426.741 324.615 418.4 328.077 409.7 328.09H370.38Z" fill="#373636" stroke="#373636" stroke-width="20" stroke-miterlimit="10"/>
</g>
<defs>
<clipPath id="clip0">
<rect width="457" height="445.37" fill="white"/>
</clipPath>
</defs>
</svg>
