<svg width="512" height="512" viewBox="0 0 512 512" fill="none" xmlns="http://www.w3.org/2000/svg">
<path d="M299.29 255.5H212.71C127.57 255.5 58.29 324.77 58.29 409.92V512H453.71V409.92C453.71 324.77 384.43 255.5 299.29 255.5ZM88.29 482V409.92C88.29 341.31 144.11 285.5 212.71 285.5H299.29C367.89 285.5 423.71 341.31 423.71 409.92V482H88.29Z" fill="#373636"/>
<path d="M256 0C190.16 0 136.59 53.57 136.59 119.41C136.59 185.25 190.16 238.82 256 238.82C321.84 238.82 375.41 185.25 375.41 119.41C375.41 53.57 321.84 0 256 0ZM256 208.82C206.7 208.82 166.59 168.71 166.59 119.41C166.59 70.11 206.7 30 256 30C305.3 30 345.41 70.11 345.41 119.41C345.41 168.71 305.3 208.82 256 208.82Z" fill="#373636"/>
</svg>
