<svg width="272" height="48" viewBox="0 0 272 48" fill="none" xmlns="http://www.w3.org/2000/svg">
<path d="M0 0L271.28 0C241.508 19.3577 241.54 29.8493 271.28 47.9178L0 47.9178L0 23.9589L0 0Z" fill="#ED5E5E"/>
<path d="M50.9307 24.6595H47.269V30.9657H45.2026V15.3768H50.3632C52.1191 15.3768 53.4682 15.7765 54.4104 16.576C55.3597 17.3754 55.8343 18.5389 55.8343 20.0663C55.8343 21.0371 55.5702 21.8829 55.0421 22.6038C54.521 23.3247 53.7929 23.8636 52.8579 24.2205L56.5196 30.8372V30.9657H54.314L50.9307 24.6595ZM47.269 22.9785H50.4275C51.4482 22.9785 52.2583 22.7144 52.8579 22.1863C53.4646 21.6581 53.768 20.9514 53.768 20.0663C53.768 19.1027 53.4789 18.364 52.9007 17.8501C52.3297 17.3361 51.5017 17.0756 50.4168 17.0685H47.269V22.9785ZM63.2219 31.1798C61.6516 31.1798 60.374 30.6659 59.3889 29.6381C58.4039 28.6031 57.9114 27.2219 57.9114 25.4946V25.1306C57.9114 23.9814 58.1291 22.9571 58.5645 22.0578C59.0071 21.1513 59.6209 20.4446 60.4061 19.9379C61.1984 19.4239 62.0549 19.167 62.9757 19.167C64.4817 19.167 65.6523 19.6631 66.4875 20.6552C67.3226 21.6474 67.7401 23.0678 67.7401 24.9164V25.7409H59.8922C59.9207 26.8829 60.2526 27.8072 60.8879 28.5139C61.5303 29.2134 62.344 29.5631 63.329 29.5631C64.0285 29.5631 64.6209 29.4204 65.1063 29.1349C65.5917 28.8494 66.0164 28.4711 66.3804 28L67.5902 28.9421C66.6195 30.4339 65.1634 31.1798 63.2219 31.1798ZM62.9757 20.7944C62.1762 20.7944 61.5053 21.087 60.9628 21.6723C60.4204 22.2505 60.0849 23.0642 59.9564 24.1134H65.7594V23.9636C65.7023 22.9571 65.4311 22.1791 64.9457 21.6295C64.4603 21.0728 63.8037 20.7944 62.9757 20.7944ZM71.0164 30.9657V20.9122H69.1855V19.3811H71.0164V18.1927C71.0164 16.9507 71.3483 15.9907 72.0121 15.3126C72.6759 14.6345 73.6145 14.2955 74.8279 14.2955C75.2847 14.2955 75.738 14.3561 76.1877 14.4775L76.0806 16.0835C75.7451 16.0192 75.3882 15.9871 75.0099 15.9871C74.3675 15.9871 73.8715 16.1763 73.5217 16.5546C73.172 16.9257 72.9971 17.4611 72.9971 18.1606V19.3811H75.4703V20.9122H72.9971V30.9657H71.0164ZM82.2155 31.1798C80.6452 31.1798 79.3675 30.6659 78.3825 29.6381C77.3975 28.6031 76.905 27.2219 76.905 25.4946V25.1306C76.905 23.9814 77.1227 22.9571 77.5581 22.0578C78.0007 21.1513 78.6145 20.4446 79.3997 19.9379C80.192 19.4239 81.0485 19.167 81.9693 19.167C83.4753 19.167 84.6459 19.6631 85.481 20.6552C86.3161 21.6474 86.7337 23.0678 86.7337 24.9164V25.7409H78.8857C78.9143 26.8829 79.2462 27.8072 79.8815 28.5139C80.5239 29.2134 81.3376 29.5631 82.3226 29.5631C83.0221 29.5631 83.6145 29.4204 84.0999 29.1349C84.5852 28.8494 85.0099 28.4711 85.374 28L86.5838 28.9421C85.6131 30.4339 84.157 31.1798 82.2155 31.1798ZM81.9693 20.7944C81.1698 20.7944 80.4989 21.087 79.9564 21.6723C79.4139 22.2505 79.0785 23.0642 78.95 24.1134H84.753V23.9636C84.6959 22.9571 84.4246 22.1791 83.9393 21.6295C83.4539 21.0728 82.7972 20.7944 81.9693 20.7944ZM94.6352 21.1584C94.3354 21.1085 94.0107 21.0835 93.6609 21.0835C92.3618 21.0835 91.4803 21.6366 91.0164 22.743V30.9657H89.0356V19.3811H90.9628L90.995 20.7194C91.6445 19.6845 92.5653 19.167 93.7573 19.167C94.1427 19.167 94.4354 19.2169 94.6352 19.3169V21.1584ZM102.066 21.1584C101.766 21.1085 101.441 21.0835 101.091 21.0835C99.7922 21.0835 98.9107 21.6366 98.4468 22.743V30.9657H96.466V19.3811H98.3932L98.4254 20.7194C99.0749 19.6845 99.9957 19.167 101.188 19.167C101.573 19.167 101.866 19.2169 102.066 19.3169V21.1584ZM108.49 31.1798C106.919 31.1798 105.642 30.6659 104.657 29.6381C103.672 28.6031 103.179 27.2219 103.179 25.4946V25.1306C103.179 23.9814 103.397 22.9571 103.832 22.0578C104.275 21.1513 104.889 20.4446 105.674 19.9379C106.466 19.4239 107.323 19.167 108.243 19.167C109.749 19.167 110.92 19.6631 111.755 20.6552C112.59 21.6474 113.008 23.0678 113.008 24.9164V25.7409H105.16C105.188 26.8829 105.52 27.8072 106.156 28.5139C106.798 29.2134 107.612 29.5631 108.597 29.5631C109.296 29.5631 109.889 29.4204 110.374 29.1349C110.859 28.8494 111.284 28.4711 111.648 28L112.858 28.9421C111.887 30.4339 110.431 31.1798 108.49 31.1798ZM108.243 20.7944C107.444 20.7944 106.773 21.087 106.231 21.6723C105.688 22.2505 105.353 23.0642 105.224 24.1134H111.027V23.9636C110.97 22.9571 110.699 22.1791 110.213 21.6295C109.728 21.0728 109.071 20.7944 108.243 20.7944ZM114.828 25.077C114.828 23.2997 115.249 21.8722 116.091 20.7944C116.934 19.7094 118.036 19.167 119.4 19.167C120.756 19.167 121.83 19.6309 122.622 20.5588V14.5203H124.603V30.9657H122.783L122.687 29.7237C121.894 30.6945 120.792 31.1798 119.378 31.1798C118.036 31.1798 116.941 30.6302 116.091 29.531C115.249 28.4318 114.828 26.9971 114.828 25.2269V25.077ZM116.809 25.3019C116.809 26.6152 117.08 27.6431 117.622 28.3854C118.165 29.1277 118.914 29.4989 119.871 29.4989C121.127 29.4989 122.044 28.935 122.622 27.8072V22.486C122.03 21.394 121.12 20.8479 119.892 20.8479C118.921 20.8479 118.165 21.2227 117.622 21.9721C117.08 22.7216 116.809 23.8315 116.809 25.3019ZM136.091 15.3768L141.188 28.0963L146.284 15.3768H148.95V30.9657H146.894V24.895L147.087 18.3426L141.969 30.9657H140.395L135.288 18.3747L135.492 24.895V30.9657H133.436V15.3768H136.091ZM157.076 31.1798C155.506 31.1798 154.228 30.6659 153.243 29.6381C152.258 28.6031 151.766 27.2219 151.766 25.4946V25.1306C151.766 23.9814 151.984 22.9571 152.419 22.0578C152.861 21.1513 153.475 20.4446 154.26 19.9379C155.053 19.4239 155.909 19.167 156.83 19.167C158.336 19.167 159.507 19.6631 160.342 20.6552C161.177 21.6474 161.595 23.0678 161.595 24.9164V25.7409H153.747C153.775 26.8829 154.107 27.8072 154.742 28.5139C155.385 29.2134 156.198 29.5631 157.183 29.5631C157.883 29.5631 158.475 29.4204 158.961 29.1349C159.446 28.8494 159.871 28.4711 160.235 28L161.445 28.9421C160.474 30.4339 159.018 31.1798 157.076 31.1798ZM156.83 20.7944C156.031 20.7944 155.36 21.087 154.817 21.6723C154.275 22.2505 153.939 23.0642 153.811 24.1134H159.614V23.9636C159.557 22.9571 159.285 22.1791 158.8 21.6295C158.315 21.0728 157.658 20.7944 156.83 20.7944ZM170.642 27.8929C170.642 27.3576 170.438 26.9436 170.031 26.6509C169.632 26.3511 168.929 26.0942 167.922 25.88C166.923 25.6659 166.127 25.409 165.535 25.1092C164.949 24.8094 164.514 24.4525 164.228 24.0385C163.95 23.6245 163.811 23.132 163.811 22.561C163.811 21.6117 164.211 20.8087 165.01 20.152C165.817 19.4953 166.844 19.167 168.093 19.167C169.407 19.167 170.47 19.506 171.284 20.1841C172.105 20.8622 172.515 21.7294 172.515 22.7858H170.524C170.524 22.2434 170.292 21.7758 169.828 21.3833C169.371 20.9907 168.793 20.7944 168.093 20.7944C167.373 20.7944 166.809 20.9514 166.402 21.2655C165.995 21.5795 165.792 21.99 165.792 22.4967C165.792 22.975 165.981 23.3354 166.359 23.5781C166.737 23.8208 167.419 24.0528 168.404 24.274C169.396 24.4953 170.199 24.7594 170.813 25.0663C171.427 25.3733 171.88 25.7444 172.173 26.1798C172.472 26.6081 172.622 27.1327 172.622 27.7537C172.622 28.7887 172.208 29.6202 171.38 30.2484C170.552 30.8693 169.478 31.1798 168.158 31.1798C167.23 31.1798 166.409 31.0157 165.695 30.6873C164.981 30.359 164.421 29.9022 164.014 29.3169C163.615 28.7244 163.415 28.0856 163.415 27.4004H165.395C165.431 28.0642 165.695 28.5924 166.188 28.985C166.687 29.3704 167.344 29.5631 168.158 29.5631C168.907 29.5631 169.507 29.4132 169.956 29.1134C170.413 28.8065 170.642 28.3997 170.642 27.8929ZM181.948 27.8929C181.948 27.3576 181.744 26.9436 181.338 26.6509C180.938 26.3511 180.235 26.0942 179.228 25.88C178.229 25.6659 177.433 25.409 176.841 25.1092C176.256 24.8094 175.82 24.4525 175.535 24.0385C175.256 23.6245 175.117 23.132 175.117 22.561C175.117 21.6117 175.517 20.8087 176.316 20.152C177.123 19.4953 178.151 19.167 179.4 19.167C180.713 19.167 181.777 19.506 182.59 20.1841C183.411 20.8622 183.822 21.7294 183.822 22.7858H181.83C181.83 22.2434 181.598 21.7758 181.134 21.3833C180.677 20.9907 180.099 20.7944 179.4 20.7944C178.679 20.7944 178.115 20.9514 177.708 21.2655C177.301 21.5795 177.098 21.99 177.098 22.4967C177.098 22.975 177.287 23.3354 177.665 23.5781C178.044 23.8208 178.725 24.0528 179.71 24.274C180.702 24.4953 181.505 24.7594 182.119 25.0663C182.733 25.3733 183.186 25.7444 183.479 26.1798C183.779 26.6081 183.929 27.1327 183.929 27.7537C183.929 28.7887 183.515 29.6202 182.687 30.2484C181.859 30.8693 180.784 31.1798 179.464 31.1798C178.536 31.1798 177.715 31.0157 177.001 30.6873C176.288 30.359 175.727 29.9022 175.32 29.3169C174.921 28.7244 174.721 28.0856 174.721 27.4004H176.702C176.737 28.0642 177.001 28.5924 177.494 28.985C177.994 29.3704 178.65 29.5631 179.464 29.5631C180.213 29.5631 180.813 29.4132 181.263 29.1134C181.719 28.8065 181.948 28.3997 181.948 27.8929ZM193.661 30.9657C193.547 30.7373 193.454 30.3304 193.383 29.7451C192.462 30.7016 191.363 31.1798 190.085 31.1798C188.943 31.1798 188.004 30.8586 187.269 30.2162C186.541 29.5667 186.177 28.7459 186.177 27.7537C186.177 26.5474 186.634 25.6124 187.547 24.9486C188.468 24.2776 189.76 23.9421 191.423 23.9421H193.35V23.0321C193.35 22.3397 193.143 21.7901 192.729 21.3833C192.315 20.9693 191.705 20.7623 190.899 20.7623C190.192 20.7623 189.6 20.9407 189.121 21.2976C188.643 21.6545 188.404 22.0863 188.404 22.5931H186.413C186.413 22.0149 186.616 21.4582 187.023 20.9229C187.437 20.3804 187.994 19.9521 188.693 19.6381C189.4 19.324 190.174 19.167 191.016 19.167C192.351 19.167 193.397 19.5025 194.153 20.1734C194.91 20.8372 195.303 21.7544 195.331 22.925V28.2569C195.331 29.3204 195.467 30.1663 195.738 30.7944V30.9657H193.661ZM190.374 29.4561C190.995 29.4561 191.584 29.2955 192.141 28.9743C192.697 28.6531 193.101 28.2355 193.35 27.7216V25.3447H191.798C189.371 25.3447 188.158 26.0549 188.158 27.4753C188.158 28.0963 188.365 28.5817 188.779 28.9314C189.193 29.2812 189.724 29.4561 190.374 29.4561ZM197.965 25.077C197.965 23.2712 198.383 21.8365 199.218 20.773C200.053 19.7023 201.159 19.167 202.537 19.167C203.95 19.167 205.053 19.6666 205.845 20.6659L205.941 19.3811H207.751V30.6873C207.751 32.1863 207.305 33.3676 206.413 34.2312C205.527 35.0949 204.335 35.5267 202.837 35.5267C202.001 35.5267 201.184 35.3483 200.385 34.9914C199.585 34.6345 198.975 34.1456 198.554 33.5246L199.582 32.3361C200.431 33.3854 201.47 33.91 202.697 33.91C203.661 33.91 204.41 33.6388 204.946 33.0963C205.488 32.5539 205.759 31.7901 205.759 30.8051V29.8094C204.967 30.723 203.886 31.1798 202.515 31.1798C201.159 31.1798 200.06 30.6338 199.218 29.5417C198.383 28.4496 197.965 26.9614 197.965 25.077ZM199.956 25.3019C199.956 26.6081 200.224 27.6359 200.759 28.3854C201.295 29.1277 202.044 29.4989 203.008 29.4989C204.257 29.4989 205.174 28.9314 205.759 27.7965V22.5075C205.153 21.4011 204.243 20.8479 203.029 20.8479C202.066 20.8479 201.313 21.2227 200.77 21.9721C200.228 22.7216 199.956 23.8315 199.956 25.3019ZM215.556 31.1798C213.986 31.1798 212.708 30.6659 211.723 29.6381C210.738 28.6031 210.246 27.2219 210.246 25.4946V25.1306C210.246 23.9814 210.463 22.9571 210.899 22.0578C211.341 21.1513 211.955 20.4446 212.74 19.9379C213.532 19.4239 214.389 19.167 215.31 19.167C216.816 19.167 217.986 19.6631 218.822 20.6552C219.657 21.6474 220.074 23.0678 220.074 24.9164V25.7409H212.226C212.255 26.8829 212.587 27.8072 213.222 28.5139C213.864 29.2134 214.678 29.5631 215.663 29.5631C216.363 29.5631 216.955 29.4204 217.44 29.1349C217.926 28.8494 218.35 28.4711 218.714 28L219.924 28.9421C218.954 30.4339 217.497 31.1798 215.556 31.1798ZM215.31 20.7944C214.51 20.7944 213.839 21.087 213.297 21.6723C212.754 22.2505 212.419 23.0642 212.29 24.1134H218.093V23.9636C218.036 22.9571 217.765 22.1791 217.28 21.6295C216.794 21.0728 216.138 20.7944 215.31 20.7944Z" fill="white"/>
</svg>
