<svg width="560" height="560" viewBox="0 0 560 560" fill="none" xmlns="http://www.w3.org/2000/svg">
<path d="M151.293 15L151.292 15C115.677 15.0161 86.8051 43.8834 86.793 79.4993V79.5V104.5H59.418C51.4067 104.5 44.918 110.993 44.918 119C44.918 127.007 51.4067 133.5 59.418 133.5H86.6641V211.5H59.418C51.4071 211.5 44.918 217.989 44.918 226C44.918 234.007 51.4067 240.5 59.418 240.5H86.6641V318.5H59.418C51.4067 318.5 44.918 324.993 44.918 333C44.918 341.011 51.4071 347.5 59.418 347.5H86.6641V425.5H59.418C51.4067 425.5 44.918 431.993 44.918 440C44.918 448.007 51.4067 454.5 59.418 454.5H86.6641V479.5V479.501C86.6802 515.116 115.548 543.984 151.163 544H446.539C482.155 543.984 511.031 515.117 511.039 479.5V79.5029C511.091 43.9092 482.263 15.0242 446.669 15L446.668 17V15L151.293 15ZM482.168 479.494C482.109 499.078 466.245 514.945 446.662 515H151.299C131.716 514.945 115.85 499.079 115.793 479.497C115.793 479.496 115.793 479.495 115.793 479.494L115.793 454.5H143.039C151.05 454.5 157.539 448.007 157.539 440C157.539 431.993 151.05 425.5 143.039 425.5H115.793V347.5H143.039C151.05 347.5 157.539 341.011 157.539 333C157.539 324.993 151.05 318.5 143.039 318.5H115.793V240.5H143.039C151.05 240.5 157.539 234.007 157.539 226C157.539 217.989 151.05 211.5 143.039 211.5H115.793V133.5H143.039C151.05 133.5 157.539 127.007 157.539 119C157.539 110.993 151.05 104.5 143.039 104.5H115.793L115.793 79.5057C115.793 79.5048 115.793 79.5039 115.793 79.503C115.85 59.9217 131.715 44.0569 151.296 44H446.665C466.247 44.0569 482.109 59.9228 482.168 79.506V479.494Z" fill="#373636" stroke="#373636" stroke-width="4"/>
<path d="M236.293 215.25L236.293 215.252C236.325 249.824 264.34 277.843 298.916 277.875L298.918 275.875V277.875C333.503 277.875 361.543 249.839 361.543 215.25C361.543 180.661 333.503 152.625 298.918 152.625C264.329 152.625 236.293 180.661 236.293 215.25ZM265.293 215.126C265.327 196.573 280.359 181.534 298.919 181.5C317.486 181.501 332.543 196.558 332.543 215.125C332.543 233.692 317.485 248.75 298.918 248.75C280.347 248.75 265.294 233.693 265.293 215.126Z" fill="#373636" stroke="#373636" stroke-width="4"/>
<path d="M204.164 392L204.164 392.006C204.187 400 210.664 406.477 218.658 406.5H218.664L379.168 406.5L379.174 406.5C387.168 406.477 393.645 400 393.668 392.006V392C393.668 337.085 352.082 294 298.918 294C245.75 294 204.164 337.085 204.164 392ZM363.3 377.5H234.54C240.598 345.509 266.244 323 298.918 323C331.596 323 357.359 345.516 363.3 377.5Z" fill="#373636" stroke="#373636" stroke-width="4"/>
</svg>
