<svg width="20" height="20" viewBox="0 0 20 20" fill="none" xmlns="http://www.w3.org/2000/svg">
<g clip-path="url(#clip0)">
<path d="M9.22288 0.319689L2.00001 7.54239C1.79383 7.74857 1.68066 8.02336 1.68066 8.31636C1.68066 8.6097 1.794 8.88433 2.00001 9.0905L2.65594 9.74627C2.86179 9.95229 3.13675 10.0658 3.42992 10.0658C3.72292 10.0658 4.00715 9.95229 4.213 9.74627L8.43589 5.53265L8.43589 18.9195C8.43589 19.5231 8.90841 20 9.51214 20L10.4395 20C11.0432 20 11.5633 19.5231 11.5633 18.9195L11.5633 5.48485L15.8098 9.74611C16.016 9.95212 16.2835 10.0656 16.5766 10.0656C16.8695 10.0656 17.1409 9.95212 17.3469 9.74611L18.0007 9.09034C18.2069 8.88416 18.3192 8.60953 18.3192 8.3162C18.3192 8.0232 18.2054 7.7484 17.9992 7.54223L10.7765 0.319526C10.5697 0.112861 10.2936 -0.000795524 10.0001 1.74892e-05C9.70564 -0.000632899 9.42938 0.112861 9.22288 0.319689Z" fill="#BDBDBD"/>
</g>
<defs>
<clipPath id="clip0">
<rect width="20" height="20" fill="white" transform="translate(0 20) rotate(-90)"/>
</clipPath>
</defs>
</svg>
